<svg width="200" height="60" fill="none" xmlns="http://www.w3.org/2000/svg"><path d="M82.26 14.192c2.185.056 3.92.439 5.209 1.148 1.307.69 2.24 1.587 2.8 2.688.579 1.101.868 2.305.868 3.612 0 .84-.15 1.699-.448 2.576-.28.877-.765 1.69-1.456 2.436-.672.728-1.577 1.325-2.716 1.792-1.139.467-2.557.719-4.256.756v3.08h-3.808V29.2c-1.717-.037-3.155-.29-4.312-.756-1.139-.467-2.044-1.073-2.716-1.82-.672-.747-1.148-1.55-1.428-2.408a8.445 8.445 0 01-.42-2.576c0-1.307.28-2.51.84-3.612.579-1.101 1.512-1.997 2.8-2.688 1.307-.71 3.052-1.092 5.236-1.148v-2.464h3.808v2.464zm-3.807 3.304c-1.81.075-3.08.495-3.808 1.26-.728.747-1.092 1.699-1.092 2.856 0 1.25.392 2.268 1.176 3.052.784.765 2.025 1.185 3.724 1.26v-8.428zm3.808 8.428c1.717-.075 2.959-.495 3.724-1.26.784-.784 1.176-1.801 1.176-3.052 0-1.157-.364-2.11-1.092-2.856-.71-.765-1.979-1.185-3.808-1.26v8.428zm19.05-13.916c2.576 0 4.452.56 5.628 1.68 1.194 1.101 1.792 2.623 1.792 4.564 0 1.157-.243 2.25-.728 3.276-.486 1.008-1.298 1.82-2.436 2.436-1.12.616-2.651.924-4.592.924h-1.82V32h-4.228V12.008h6.384zm-.224 3.472h-1.932v5.936h1.4c1.194 0 2.137-.233 2.828-.7.709-.485 1.064-1.26 1.064-2.324 0-1.941-1.12-2.912-3.36-2.912zM124.017 32h-11.508V12.008h11.508v3.472h-7.28v4.396h6.776v3.472h-6.776V28.5h7.28V32zm29.304 0h-25.144V12.008h4.228v16.464h6.216V12.008h4.256v16.464h6.216V12.008h4.228V32zm23.187-10.024c0 2.072-.345 3.883-1.036 5.432-.672 1.53-1.708 2.725-3.108 3.584-1.4.859-3.192 1.288-5.376 1.288-2.165 0-3.957-.43-5.376-1.288-1.4-.859-2.445-2.063-3.136-3.612-.672-1.55-1.008-3.36-1.008-5.432 0-2.072.336-3.873 1.008-5.404.691-1.53 1.736-2.716 3.136-3.556 1.419-.859 3.22-1.288 5.404-1.288 2.166 0 3.948.43 5.348 1.288 1.4.84 2.436 2.035 3.108 3.584.691 1.53 1.036 3.332 1.036 5.404zm-14.588 0c0 2.09.402 3.743 1.204 4.956.803 1.195 2.091 1.792 3.864 1.792 1.811 0 3.108-.597 3.892-1.792.784-1.213 1.176-2.865 1.176-4.956 0-2.11-.392-3.761-1.176-4.956-.784-1.195-2.072-1.792-3.864-1.792-1.792 0-3.089.597-3.892 1.792-.802 1.195-1.204 2.847-1.204 4.956zM196.945 32h-4.816l-7.252-10.136V32h-4.228V12.008h4.228v9.688l7.168-9.688h4.508l-7.28 9.604L196.945 32zM87.117 45.704c0 .888-.148 1.664-.445 2.328a3.326 3.326 0 01-1.331 1.536c-.6.368-1.368.552-2.304.552-.928 0-1.697-.184-2.305-.552a3.386 3.386 0 01-1.344-1.548c-.288-.664-.431-1.44-.431-2.328 0-.888.144-1.66.431-2.316a3.327 3.327 0 011.344-1.524c.609-.368 1.38-.552 2.317-.552.927 0 1.691.184 2.291.552.6.36 1.044.872 1.332 1.536.297.656.445 1.428.445 2.316zm-6.252 0c0 .896.172 1.604.516 2.124.344.512.895.768 1.656.768.775 0 1.331-.256 1.667-.768.337-.52.505-1.228.505-2.124 0-.904-.169-1.612-.505-2.124-.335-.512-.887-.768-1.655-.768-.769 0-1.325.256-1.669.768-.343.512-.515 1.22-.515 2.124zM95.91 50H94.1v-3.696h-3.396V50h-1.812v-8.568h1.812v3.36H94.1v-3.36h1.812V50zm8.936 0h-1.812v-7.056h-2.1l-.156 1.2c-.048.432-.104.872-.168 1.32-.056.44-.116.86-.18 1.26-.064.392-.128.74-.192 1.044-.104.496-.244.92-.42 1.272-.168.352-.404.62-.708.804-.296.184-.684.276-1.164.276-.312 0-.6-.044-.864-.132V48.5c.104.032.204.06.3.084.104.024.216.036.336.036.232 0 .408-.12.528-.36.128-.248.256-.708.384-1.38.048-.256.116-.656.204-1.2.088-.544.184-1.18.288-1.908.112-.736.216-1.516.312-2.34h5.412V50zm7.405 0l-.624-2.04h-3.12l-.624 2.04h-1.956l3.024-8.604h2.22L114.208 50h-1.956zm-1.68-5.556c-.04-.136-.092-.308-.156-.516-.064-.208-.128-.42-.192-.636a13.834 13.834 0 01-.156-.564c-.04.16-.096.36-.168.6-.064.232-.128.456-.192.672-.056.208-.1.356-.132.444l-.612 1.992h2.232l-.624-1.992zm11.622-5.832a2.6 2.6 0 01-.348 1.104c-.192.312-.492.556-.9.732-.408.176-.956.264-1.644.264-.704 0-1.256-.084-1.656-.252-.392-.176-.672-.42-.84-.732-.168-.312-.268-.684-.3-1.116h1.596c.04.44.152.732.336.876.184.144.484.216.9.216.344 0 .624-.076.84-.228.224-.16.356-.448.396-.864h1.62zm-6.9 2.82h1.632v4.14c0 .2-.004.424-.012.672l-.024.732c-.008.232-.016.436-.024.612a5.388 5.388 0 01-.024.348h.036l3.96-6.504h2.172V50h-1.62v-4.116c0-.216.004-.452.012-.708l.024-.756c.016-.24.028-.448.036-.624.016-.184.028-.304.036-.36h-.048L117.478 50h-2.184v-8.568zm16.9 8.568h-1.812v-3.696h-3.396V50h-1.812v-8.568h1.812v3.36h3.396v-3.36h1.812V50zm1.663-2.574a1.735 1.735 0 01-.054-.336 4.712 4.712 0 01-.012-.306c0-.084.004-.186.012-.306s.026-.234.054-.342h3.186c.028.108.046.222.054.342.008.12.012.222.012.306 0 .084-.004.186-.012.306s-.026.232-.054.336h-3.186zM142.332 50l-2.064-6.72h-.048l.036.72c.016.32.032.664.048 1.032.016.36.024.688.024.984V50h-1.62v-8.568h2.472l2.028 6.552h.036l2.148-6.552h2.472V50h-1.692v-4.056c0-.272.004-.584.012-.936.016-.352.028-.684.036-.996l.036-.72h-.048L144 50h-1.668zm12.94 0l-.624-2.04h-3.12l-.624 2.04h-1.956l3.024-8.604h2.22L157.228 50h-1.956zm-1.68-5.556c-.04-.136-.092-.308-.156-.516-.064-.208-.128-.42-.192-.636a13.834 13.834 0 01-.156-.564c-.04.16-.096.36-.168.6-.064.232-.128.456-.192.672-.056.208-.1.356-.132.444l-.612 1.992h2.232l-.624-1.992zm7.457-3.012c1.104 0 1.908.24 2.412.72.512.472.768 1.124.768 1.956 0 .496-.104.964-.312 1.404-.208.432-.556.78-1.044 1.044-.48.264-1.136.396-1.968.396h-.78V50h-1.812v-8.568h2.736zm-.096 1.488h-.828v2.544h.6c.512 0 .916-.1 1.212-.3.304-.208.456-.54.456-.996 0-.832-.48-1.248-1.44-1.248zM172.832 50h-2.064l-3.108-4.344V50h-1.812v-8.568h1.812v4.152l3.072-4.152h1.932l-3.12 4.116L172.832 50zm6.011 0h-4.932v-8.568h4.932v1.488h-3.12v1.884h2.904v1.488h-2.904V48.5h3.12V50zm5.083 0h-1.812v-7.056h-2.328v-1.512h6.468v1.512h-2.328V50z" fill="#63A60E"/><path opacity=".2" d="M54.648 59.067c0-.512-11.474-.933-25.611-.933-14.138 0-25.612.421-25.612.933S14.899 60 29.037 60c14.17 0 25.611-.421 25.611-.933z" fill="#5D5D5D"/><path d="M29.398 11.81c11.146 0 20.187 8.277 20.187 18.481v18.482H29.398c-11.145 0-20.186-8.278-20.186-18.482V11.81h20.186z" fill="#63A60E"/><path opacity=".3" d="M46.692 20.78c-1.677 1.775-2.696 4.093-2.696 6.622 0 3.762 2.236 7.043 5.556 8.819v-5.93c0-3.461-1.019-6.712-2.86-9.511z" fill="#63A60E"/><path d="M38.769 13.947c-3.157 1.655-5.26 4.756-5.26 8.338 0 5.297 4.7 9.602 10.487 9.602 2.038 0 3.945-.542 5.556-1.475v-.12c0-7.104-4.372-13.275-10.783-16.345z" fill="#63A60E"/><path opacity=".5" d="M22.922 15.39c-5.195 0-9.962 1.656-13.71 4.456V30.32c0 10.205 9.041 18.482 20.187 18.482h9.666c3.517-3.552 5.654-8.247 5.654-13.425 0-11.046-9.764-19.986-21.797-19.986z" fill="#E0EDCF"/><path d="M49.552 48.742l-20.154.03c-11.145 0-20.186-8.277-20.186-18.48V11.84l40.34 36.902z" fill="#63A60E"/><path opacity=".3" d="M12.335 18.432c0 14.026 12.428 25.374 27.716 25.374 1.315 0 2.597-.09 3.846-.24L12.598 14.94a24.621 24.621 0 00-.263 3.492z" fill="#63A60E"/><path opacity=".3" d="M49.552 48.773L9.376 11.99c4.734 6.472 10.192 13.034 15.748 18.452 4.34 4.214 16.866 13.635 24.428 18.33z" fill="#63A60E"/><path opacity=".3" d="M22.396 23.88L9.212 11.84v18.48c0 8.157 5.786 15.08 13.775 17.518-3.419-3.16-5.523-7.494-5.523-12.25 0-4.515 1.874-8.609 4.932-11.71z" fill="#63A60E"/><path opacity=".3" d="M40.347 40.345c-3.42 3.822-8.614 6.29-14.434 6.29-3.88 0-7.496-1.083-10.488-2.95 3.617 3.161 8.516 5.118 13.94 5.118h20.187v-.03l-9.205-8.428z" fill="#63A60E"/><path opacity=".3" d="M10.395 22.887c0-2.98.56-5.87 1.611-8.519L9.212 11.84v18.48c0 10.204 9.041 18.482 20.187 18.482h20.186v-.03l-2.005-1.837a29.736 29.736 0 01-9.337 1.475c-15.387-.03-27.848-11.438-27.848-25.524z" fill="#E0EDCF"/><path d="M49.224 52.355c1.413-.362 2.893.421 3.254 1.715.395 1.295-.46 2.65-1.907 2.98-1.413.361-2.893-.421-3.254-1.715-.362-1.295.493-2.62 1.907-2.98zm-.527-1.836c-2.531.632-4.044 2.98-3.353 5.297.657 2.318 3.255 3.702 5.786 3.07 2.532-.632 4.044-3.01 3.354-5.297-.658-2.318-3.255-3.672-5.787-3.07z" fill="#63A60E"/><path opacity=".5" d="M52.05 56.177a2.821 2.821 0 01-1.446.903c-1.414.361-2.893-.422-3.255-1.716a2.298 2.298 0 01.888-2.498c-.395-.512-.724-1.084-1.052-1.656-1.579 1.024-2.368 2.86-1.842 4.666.658 2.318 3.255 3.702 5.787 3.07 1.183-.301 2.137-.963 2.762-1.836a34.044 34.044 0 01-1.842-.933z" fill="#63A60E"/><path d="M10.165 52.355c1.414-.331 2.893.451 3.255 1.745.361 1.295-.493 2.65-1.907 2.98-1.414.331-2.893-.451-3.255-1.745-.362-1.295.493-2.65 1.907-2.98zm-.526-1.836c-2.532.602-4.044 2.98-3.387 5.297.658 2.318 3.255 3.702 5.787 3.1 2.531-.602 4.044-2.98 3.419-5.297-.69-2.318-3.288-3.703-5.82-3.1z" fill="#63A60E"/><path opacity=".5" d="M12.96 56.207a2.596 2.596 0 01-1.447.873c-1.414.331-2.893-.452-3.255-1.746-.263-.963.132-1.926.888-2.498-.395-.512-.723-1.084-1.02-1.656-1.577.994-2.4 2.83-1.873 4.636.657 2.317 3.255 3.702 5.786 3.1 1.184-.27 2.17-.963 2.762-1.836a12.63 12.63 0 01-1.841-.873z" fill="#63A60E"/><path d="M10.494 10.546c-.625 0-1.15-.482-1.15-1.054 0-2.468-.757-4.334-2.204-5.568-2.334-2.017-5.852-1.806-5.885-1.806-.624.06-1.183-.392-1.25-.964C-.06.582.434.071 1.059.011c.197 0 4.537-.301 7.628 2.317 1.972 1.656 2.959 4.064 2.959 7.134 0 .602-.494 1.084-1.151 1.084z" fill="#63A60E"/></svg>